<mxfile host="app.diagrams.net" modified="2023-05-24T06:48:53.514Z" agent="Mozilla/5.0 (X11; Linux x86_64) AppleWebKit/537.36 (KHTML, like Gecko) Chrome/98.0.4758.80 Safari/537.36" etag="rWmwmhgBR6Ka9_cHjMgc" version="21.3.2" type="github">
  <diagram name="Page-1" id="petb7cBD136uMQjqgjZJ">
    <mxGraphModel dx="1567" dy="880" grid="1" gridSize="10" guides="1" tooltips="1" connect="1" arrows="1" fold="1" page="1" pageScale="1" pageWidth="850" pageHeight="1100" math="0" shadow="0">
      <root>
        <mxCell id="0" />
        <mxCell id="1" parent="0" />
        <mxCell id="dHZ3otPqyAfwlpbNGFlz-1" value="k8s-control-plane" style="rounded=1;whiteSpace=wrap;html=1;align=center;verticalAlign=top;fillColor=#ffe6cc;strokeColor=#d79b00;" vertex="1" parent="1">
          <mxGeometry x="530" y="525.5" width="130" height="73" as="geometry" />
        </mxCell>
        <mxCell id="dHZ3otPqyAfwlpbNGFlz-2" value="" style="rounded=1;whiteSpace=wrap;html=1;fillColor=#ffe6cc;strokeColor=#d79b00;" vertex="1" parent="1">
          <mxGeometry x="195" y="515" width="100" height="89" as="geometry" />
        </mxCell>
        <mxCell id="dHZ3otPqyAfwlpbNGFlz-3" style="edgeStyle=none;rounded=0;orthogonalLoop=1;jettySize=auto;html=1;exitX=1;exitY=0.5;exitDx=0;exitDy=0;entryX=0;entryY=0.5;entryDx=0;entryDy=0;startArrow=classic;startFill=1;strokeWidth=3;fillColor=#d5e8d4;strokeColor=#82b366;" edge="1" parent="1" source="dHZ3otPqyAfwlpbNGFlz-4" target="dHZ3otPqyAfwlpbNGFlz-5">
          <mxGeometry relative="1" as="geometry" />
        </mxCell>
        <mxCell id="dHZ3otPqyAfwlpbNGFlz-4" value="" style="rounded=0;whiteSpace=wrap;html=1;fillColor=#f5f5f5;fontColor=#333333;strokeColor=#666666;" vertex="1" parent="1">
          <mxGeometry x="250" y="220" width="120" height="180" as="geometry" />
        </mxCell>
        <mxCell id="dHZ3otPqyAfwlpbNGFlz-5" value="" style="rounded=0;whiteSpace=wrap;html=1;fillColor=#f5f5f5;fontColor=#333333;strokeColor=#666666;" vertex="1" parent="1">
          <mxGeometry x="460" y="220" width="120" height="180" as="geometry" />
        </mxCell>
        <mxCell id="dHZ3otPqyAfwlpbNGFlz-6" value="Egress Gateway" style="rounded=0;whiteSpace=wrap;html=1;align=left;verticalAlign=top;fillColor=#f5f5f5;fontColor=#333333;strokeColor=#666666;" vertex="1" parent="1">
          <mxGeometry x="638.01" y="260" width="120" height="140" as="geometry" />
        </mxCell>
        <mxCell id="dHZ3otPqyAfwlpbNGFlz-7" style="edgeStyle=orthogonalEdgeStyle;rounded=0;orthogonalLoop=1;jettySize=auto;html=1;exitX=0.5;exitY=1;exitDx=0;exitDy=0;entryX=0.5;entryY=0;entryDx=0;entryDy=0;startArrow=classic;startFill=1;" edge="1" parent="1" source="dHZ3otPqyAfwlpbNGFlz-8" target="dHZ3otPqyAfwlpbNGFlz-11">
          <mxGeometry relative="1" as="geometry" />
        </mxCell>
        <mxCell id="dHZ3otPqyAfwlpbNGFlz-8" value="workload A" style="rounded=1;whiteSpace=wrap;html=1;" vertex="1" parent="1">
          <mxGeometry x="260" y="240" width="100" height="40" as="geometry" />
        </mxCell>
        <mxCell id="dHZ3otPqyAfwlpbNGFlz-9" style="edgeStyle=orthogonalEdgeStyle;rounded=0;orthogonalLoop=1;jettySize=auto;html=1;exitX=0.5;exitY=1;exitDx=0;exitDy=0;entryX=0.5;entryY=0;entryDx=0;entryDy=0;startArrow=classic;startFill=1;" edge="1" parent="1" source="dHZ3otPqyAfwlpbNGFlz-10" target="dHZ3otPqyAfwlpbNGFlz-12">
          <mxGeometry relative="1" as="geometry" />
        </mxCell>
        <mxCell id="dHZ3otPqyAfwlpbNGFlz-10" value="workload A" style="rounded=1;whiteSpace=wrap;html=1;" vertex="1" parent="1">
          <mxGeometry x="470" y="240" width="100" height="40" as="geometry" />
        </mxCell>
        <mxCell id="dHZ3otPqyAfwlpbNGFlz-11" value="" style="rounded=1;whiteSpace=wrap;html=1;fillColor=#dae8fc;strokeColor=#6c8ebf;" vertex="1" parent="1">
          <mxGeometry x="260" y="320" width="100" height="40" as="geometry" />
        </mxCell>
        <mxCell id="dHZ3otPqyAfwlpbNGFlz-12" value="" style="rounded=1;whiteSpace=wrap;html=1;fillColor=#dae8fc;strokeColor=#6c8ebf;" vertex="1" parent="1">
          <mxGeometry x="470" y="320" width="100" height="40" as="geometry" />
        </mxCell>
        <mxCell id="dHZ3otPqyAfwlpbNGFlz-13" value="" style="rounded=1;whiteSpace=wrap;html=1;fillColor=#dae8fc;strokeColor=#6c8ebf;" vertex="1" parent="1">
          <mxGeometry x="648.01" y="320" width="100" height="40" as="geometry" />
        </mxCell>
        <mxCell id="dHZ3otPqyAfwlpbNGFlz-14" value="" style="shape=image;verticalLabelPosition=bottom;labelBackgroundColor=default;verticalAlign=top;aspect=fixed;imageAspect=0;image=data:image/png,iVBORw0KGgoAAAANSUhEUgAAAYsAAAB/CAMAAAApSh4CAAAA51BMVEX////RSptJI2W6aaqlN5VHIGQ/D16lmbHONZP59/o0AFZGHWM+C103AFnQRplQLmq2XqW4Y6fPP5e1WqNCFmBiSHiwprnPO5WjMZNBE1+eG4318/ahKJD02ejVXaTw4e378PbjnMS1q77cf7Xz5/HMxdJ+ao/uw9vpsdDehrjru9bVqMu+c6/s2ujJjr1WNm/r6O2YiaXo0OPXZ6nlpMnwzODhkr/hwtrcuNWCb5Pd2OG/tsfOyNRvV4OMe5vTVaDPm8TDf7XadbDRn8ZiRXlsVIGpQ5qaAIjYsNAbAEjBerKTg6GuT6DqZaX1AAASjElEQVR4nO1da0PbuBINCU6wE4eEuCSEAC6vtjwSoHSB8IbSspT//3uubY3kkTSynQdlb/D5sNvY8gMda2bOaCwXCn8TX7Zu575/3v6r18xBwP+81K7PzdWXFr699618cKxtLSzNAZaWvrz37Xxg7K0v1OcQ2t9zQ/Uu8E8j4yShvvD5vW/rAwIbJ4yluR/vfWsfDKpxkobGlv/et/dxQBkniY321/e+xQ8Ck3GSfPj62nvf5gdAgnGSDdU/732nM44044SRi423RBbjJBmqXGy8EZKNUzBedJ5ysfEWSDZO9Xb91C78Q3CVi41pI9k41RfWmWfYWG8TO7fsd777WUKKcVr4FoevX4nBU1/IxcZ0kGaclk593NzeInhrr2+8093PEtKM03c9bF27pXx4LjYmxJfsxgnjlPLhudiYAOmRk2889GFBPyIXG+NiDOOE8WWJMlSnf+nmZwpjGieMXGxMBfb6uMYJIxcb08B6AhNc1mUBKTbymY1R8INwvCMYJ4RcbEyKz7TT1mRdFqzN5WJjEvxDmajUyMmEXGxMgn/0R3lU44Thf9d9+NzCgz/FO55dqDaKJcQnQC42xobMxUiRkwmk2LjNqxNScYq5WBrfOGHkYmM8fEVcLE1NDeRiYxy8DRcmseFP7QKzCIkL5mGnk2H9QYmNdp69TYDORf/1bjqWnRAb9bmpnHlGsYe5iGpq7prNxtlUzr2ti43cZyTgS1vl4rFZKjXup2NMNLFRX5/KeWcO0cOPuahHqaOQi1KptT+di6hioz2d084U/P1GM/z/D42L/YiLUrN0MpULrcliY2kqJ50lHPZbQY+H/5K4iN5MBS6CodFfncrFcHiQjwsFZweNsL/1cRFx8cy5KDUb51O5Xs6FAYFxakBXhz/XMBcP4ZaYi8CHH0xjKkjiIs+EcDDjBB0dbtC5OEdcBIbqbvKL1nMudIBxMnLxPdwic1GagtjAXCz4k55tFuDvNxtSL7fCrRs6F62SjMa9P9mVb+s5FxjYOGEutlHtAQixZ73lZGJD4uLDZ6Rk48R7ODTdBBcFv99QmjZLhxNcfX0sLuyRPMtU3dDb+TRbRE4EFz7m4pYfctLUhsYEYgNz0c4SmO0cXxedAO7Pi+Uh9RcxwK+rypMXNh7cXK5qbYyM0ruHyxcDNzrZrnblsU4o41AzObx7/YKJi0DxqUdNIDa+j8TF8MJ1y1WrGKLq1ZzFTbVFxXEDOIPox3LVXWGtq57rXBzJjYJm9FUu2O5/cYfby4tOzatGV7a8smNVpOePn7BC3/a/bO9Nwp9mk2Mi7NsoNW5jLnBGe/tFPXBssfGAuUiZxT26dryiBMut7shtKuWo6z8F/7yq1izc2BM9teqwLe4l2Stsb3QOcVpXPlfRKjt/0GN+vMK2Fskbh70ONY45zigugojqnF0FczFXV47UDNVjwoXM2MrORUVlIvrrnQu5keCi4lhqY3cXWu16encLXNZUogJW9SsXy6jFEWf3ijrjChubg6S/bl+3UM3WfZz3M3NRsO/U8LbZHEdsZOfiyY0JqFbjfi4PsBkWXCw7RPe5QNwVnMs5Ii70iVkiV2w41lmF5yA2OtfsII8yQ3C1mmZQMTQumo1HHMtgLrQk6mFJM1T3ftLVSGTlwl7kg8Jz3eLPn4uB44Ae8hYRGcDFE39Qi9VqFXWfA4/yIjt25Vi/Ehy58odv2I0fgvApQI9BsfbEG+1AI5fwzxfs1p1E1/3clIngxokDc0Ek7gix8Zx0OQrfMBcJL2UMgArPubliNzmseGA5PGRqOBdPIQNWLQi3rj/VHE5bsIU1W65JPzEqinGPqQj8v/fp+lPVcYWxXBFkWOwSlAti5HoX+h4EzIVknACYiwXi+CmIjYxcXK/Ac32DwxfuEtw4fGFcFKPBUFtcZjboqFLmvVdjTW2z94bA6yf8POZUeM7uDvjRqxvBRo27IH7hn9oJuf9J8txSeqn5SAitpRQuaLExkhrCNbttY13iJusQy1WipqHLyIjtPnRJtBEFmPY1bLcstuEGvPe1eikw7i4Y9x1u69xd7FtWb8R2aMhjM90FMf9jLSZ3BE71UfulxJ2hix81sdEaZdIP14m29wyNRAyqPVpDGP/86URcOHJIcw1PMtieoanrwLhzzw1kC0cjsCP2HEkHai4I/E9tOaEXApyhcUHtn6unc0GIjdYIdgpzsWTi4gZM+I6+C/pedKngQrU+NvQd75OfzKWXK2ozRi7EQ3/KJLEhhmC8+HMA7Fqe4Q5TchNIXzSo/RmTqLrYSL4sxmkGLmBYkPFigWkw8TRyLjzN+MAefpZLl+y6zRoePUI2UOEoN1/cyw8gFlaemKIlj1wDTmIuWtT+9YwJbbsvi41G9oFxmqFONPHJYprWqsptCY0LjFZ55MODULnr2HDhsgwEszhGBlglHiABjUqvw/ChRSDCWQoXUrIoMYkqi40RVF8WLpgYoIcF97W873k4Qyhq1s0WV7+8n6UBxI07jANIfBiSF3zUcOHABaT0zPxhzwqdHInw/Br+Vx0XG4rXzc5FKDYQF9lThUTNrgr4kw1Pli2LWuCC8pR/osdYxDNHlPc+ZoeDYgOe6VRJIfbz4JpYtyvXZnSqbklgu9/r9cJ/qFwc/r6XPPTDKElU/624gLHvGpxfVRo1wAUVzLNdcWz5RHhvz8JWhxNrSl7syI4e2JXyTtDE4LlPSt3e/HzExSHiIiRho9vp4W4cJYlaKLzEXGSX33rNrgZ43FYMZ2DhO392uW8hoj6mtWMuoJuw+eDiApiEJBOZtQoBilGcEtjFJo1lIXUZE+L5V7czH6Ab/kBcNKKJvG6w4zU2RqNxcf9GXECPhKkgCsyk83gIHn6KOJULSJ9i47crm7EihMHGu4cGfB4EYjNPpLI4W2psVQiNU7cXMQFcbChc+AEX851un7cfIaEd4D4uZMs+B47r4Zbo170hVgwkM4liEfcHcEGlpzUueJQrAh9bkWUwcMy57l1l4EDeK07xMvuqaQ4wTvMGLvwCcBHYrw7EQVkTdwwTc1GnuSjSGWsFYJXQXJIKjQvhvbkx5+ICfttKFKyDO29FacY6k8VuK4rn5sYJc7GtcGF3+d5S+HNELvqxjco+r5SBC++tuOBTSmIcsJ4T44QrEtLYR4CslogUjhT24LfkcMLICTMR9HbkHxAXoZcQXMz3IjuVLXHH0Y/HxV1aWwG9ZlcDzDWYbBRgHC7AVfNNQzV4hp7VU68cQGbc18oGnsGPj9jGxglz4Ru56NyHB47Gxd04XEi1iVtkE5hnswaLSaiNwQU3f/BcH6uyDCY5zDoNbi2OWIFdHiezwAKlxvxuR2VivvPbL8hchPJB5eLzuFz009oK6DW7GuBZM8W0MkbjogJpC6YnNFk2ULtaBc+jxFsYu5CSYczgCau+Nig63fnIu662ZC4Kr5yMzkv4M1MSVeDxjbioSFo4BaNxIZLx4bl1WcbdgSmXBLkm7FBgwpAdwo7HWfRWR2WClyTbiAuWznuGMdQ5CH9lSRbFiLkoZedCr9nVsCMLsGSMxgUPhCJlzcYfTu3BjJwhEyaeEqzcec49Gmmu5rkbEhe9bj/OZmhcFOyXiI1OlPYejYv9cbjYTucCHl6qTkDHiFzwJ3sgLoMHgRg2hosVidQhH0s2l36S60dchMYJD3XkL0Ra8ORXj3Mx2sIHMRfN+7S2AlTNrgpeJJPFSI3IRWEguhN2V/FeKmUV41IOwxiGcaaXJQykSa0DwUW3oSRiKS4CY9PtdKJ5vgyJOwRUyfCS1lbAz8DFJh73Gi4lzzoqF5vCDDFHLXe7qLShMlI2ZNSViSaYAfkpBhreKbjoamlvmouC3+xGeVucLKo/pD2WiIuDlKboUoaaXQm8woAqubxyati1jsoF2Pdieagb94KIpMiSvydmjayyvPmSn4hdT3Y2L4IL7XRNmotC4Sya38BczNWNpQGA8zfjAkJPiowdp2jhgo9RueD23WKKUtXYV+AxPP2EvLJEK+uBWd8KM63yPFQCF6WYC2oqbk9eJ6L9PXEOI62qhERCzS4Cr9XT6rgrUV+512LMjswFLwgBe6MmVHehMMsrymHccMB3aJeCCUNPmq0F3GfhgpwWXVPW7EheOPPs7bjgj2exNsCddXTNazHERNPIXPCCEEaIJihti2eJnd2YjeGNwzfrU1yifDS6YdmZxFxoFj+Fi4K2tNBS3ZwiRFyQVSU0UupEAaJ6r+oWK8Po77CvLniHoMLB0bm4ROWyRMB0xOugAsKLN8s7OzubfxbjindqKvwasasEf33Bha8ehbggp0W/aovZ1M0LZ6ZV+NDIxkVhV1TdWyuuUx0McFWrG/vH0bkooDcrqBm8YVxlbnk113VrceLYokq2RPRV1GViAhcHKVwUtqjVAQ3R7Xhc4AvQdaIMuNq7iOaQirIXGYMLsO9F00zFkUe89wGDlM6OxDenJgvuelm4MEyLUgtntumFM0/G4iK9ZhdQcapkh3iSvx2Di9i+0+8pFexrl5pCsdyfholwUbyoXSyBCzQVZ5qiXrulhsY3QmyMxwU+r7FONMJw4OpseM7uRFovxBP3w8aJ7cuVmsqGVXaNFbKrItRQmzwKLrSQNNO06FdqTVlCbJwos+dZsLaVpX6a43LglHHU49VwcBOh4pQDuNT0zzLbZWk7dqId5bKTkPFa9lw0v2h5rltJuNkLXkitBln7Zi7QtGjCFLX/QBkq7Us7alVJOvZu5ROnL3wwPB44gfcslwMn6pR3N7WA8qqyHIKqaBqyXcTTDDsqptobduabYnTp8MrVC8pno0tB1kYroo250Mpc06ao+Z9KLpypftZzRC78z9pnmDItQmEPdzYrlc3Lq8SeexOsXl0uV5YzXHkTz2JgPCdw0Uzmoie8yGfKUMliA1WVtFJfvic/wzQzi1CwNJalm0PBRU97SSVtivpX95XbNWLhTEVsqBU+CVCNE7d7M8IF5FUI5XieiQtyyuFXB1Wu7ZGr9MfTGttoZiqpU/3PbcNnmGZlXEDVKaEcz8xcoGlRcj3H1w6qXCvY3xLFhh2/SZnAxdqD+RtxxnzU/xn0aXCObFyQS6y8strbpg+/U8SGeJOyYUroGowTDIsZWSwYMlxEES3iQsv/yeuk6UuswPRspys8e4rYgGVbaC7Mxgk4Hfuv/28BXlyliogSuFhVFpJQl1hp8lTWb7EpRWywNympl8RSP2A5K58/NHvuwHIILvQ8h7ZoXUtaPP6AmvpIERvhm5Q6F3u3CUMi/AzT7HzfTSvsRDjpmrkIjIpChrSeI8lFmtiw71oKF4SswzxO+hmm/xaukiqi43FB5TkOD/QlVkQUdC8Kz+XOShEbh1JMlhQ5TfCNuP8o+FIMdDp9o5vERWintJULRENeR9hVQ6y9drLYiBsmRU71mTFOO5fR07paASoMi0WlcUEuscIfbKgj1NPtKWIDzpwcObXnZsY4HTtO8frJcvjMBTnhh7kwvqKStJ7jyXyPKq3KMLPxkYxT4LDxCmOmd5liLu7M59LXc2wJsfHY7VBcpIiND2KcAANprskyvfq6Ld6qmE947zppPcft5m+644xi40NFTiEcmQrTWwKIi24rIftGrOd4x/edmx7iH3Xqk2AfyDgxSDVRXsLiHzEX853unfmE463nSImND2ScGK7+hYVwrWpZmYGXcY9fTOrNJyy1RYkNn2pon5Ve+BDboL4/bDROX2fMOAGujj9Vw+Wkq9fJM7V2B78N0+keJPCmiQ1qPcftx8CcIRVCzWx8EOMkI8NzttpAZipkI6nQIEFsMJzwzwIgFUKJjQ9hnMbAeU96gbL3mrDaVuJ6jvY5Ximq0fdhOyU2JOM0O7Juctx3ZUN1n9A1xsXjI+NkUCHEZz0/jnEaEYev8tDojSw2Tu6JzwI0DvgQI8VGbpxoPMsv3XeTKgR0sdHQ1swWFsyHgwixMbuR04RYPVAM1Z3WxBbuWBMbBjQO0MrbitiYodm66SNK9JnFxna/C0vkFKjF43U0W305CkAzG7lxSsNd1yg2ThrhPhTx6ovHK0Oise9rF9hrL9VZ5JQbpzRsq2KDaTl7f56zFEe8/r15aDQbJTpBYp/eLiwsPOSRUxYQYgOtfidHvLrYMBgnCbb/N/6OmYCtio2WuqwRini1xeNNxinHeFDEBrXA1Ctvq4mNxsHEn/7MgbFPrPCFRsqvZ+R4sdhINk45xoIiNrCB6qp1zmLx+Nw4vREUsQFDotfrE3r88KXVaLRy4/R2uFOHRmicDG23T05y5faWkMWGbpxy/E0IsdHpdSnjlOMvIhQbAczGKcdfxEa/8ap/XC/H9PE/jz/0hbk7zmkAAAAASUVORK5CYII=;" vertex="1" parent="1">
          <mxGeometry x="268.01" y="326.5" width="83.98" height="27" as="geometry" />
        </mxCell>
        <mxCell id="dHZ3otPqyAfwlpbNGFlz-15" value="" style="shape=image;verticalLabelPosition=bottom;labelBackgroundColor=default;verticalAlign=top;aspect=fixed;imageAspect=0;image=data:image/png,iVBORw0KGgoAAAANSUhEUgAAAYsAAAB/CAMAAAApSh4CAAAA51BMVEX////RSptJI2W6aaqlN5VHIGQ/D16lmbHONZP59/o0AFZGHWM+C103AFnQRplQLmq2XqW4Y6fPP5e1WqNCFmBiSHiwprnPO5WjMZNBE1+eG4318/ahKJD02ejVXaTw4e378PbjnMS1q77cf7Xz5/HMxdJ+ao/uw9vpsdDehrjru9bVqMu+c6/s2ujJjr1WNm/r6O2YiaXo0OPXZ6nlpMnwzODhkr/hwtrcuNWCb5Pd2OG/tsfOyNRvV4OMe5vTVaDPm8TDf7XadbDRn8ZiRXlsVIGpQ5qaAIjYsNAbAEjBerKTg6GuT6DqZaX1AAASjElEQVR4nO1da0PbuBINCU6wE4eEuCSEAC6vtjwSoHSB8IbSspT//3uubY3kkTSynQdlb/D5sNvY8gMda2bOaCwXCn8TX7Zu575/3v6r18xBwP+81K7PzdWXFr699618cKxtLSzNAZaWvrz37Xxg7K0v1OcQ2t9zQ/Uu8E8j4yShvvD5vW/rAwIbJ4yluR/vfWsfDKpxkobGlv/et/dxQBkniY321/e+xQ8Ck3GSfPj62nvf5gdAgnGSDdU/732nM44044SRi423RBbjJBmqXGy8EZKNUzBedJ5ysfEWSDZO9Xb91C78Q3CVi41pI9k41RfWmWfYWG8TO7fsd777WUKKcVr4FoevX4nBU1/IxcZ0kGaclk593NzeInhrr2+8093PEtKM03c9bF27pXx4LjYmxJfsxgnjlPLhudiYAOmRk2889GFBPyIXG+NiDOOE8WWJMlSnf+nmZwpjGieMXGxMBfb6uMYJIxcb08B6AhNc1mUBKTbymY1R8INwvCMYJ4RcbEyKz7TT1mRdFqzN5WJjEvxDmajUyMmEXGxMgn/0R3lU44Thf9d9+NzCgz/FO55dqDaKJcQnQC42xobMxUiRkwmk2LjNqxNScYq5WBrfOGHkYmM8fEVcLE1NDeRiYxy8DRcmseFP7QKzCIkL5mGnk2H9QYmNdp69TYDORf/1bjqWnRAb9bmpnHlGsYe5iGpq7prNxtlUzr2ti43cZyTgS1vl4rFZKjXup2NMNLFRX5/KeWcO0cOPuahHqaOQi1KptT+di6hioz2d084U/P1GM/z/D42L/YiLUrN0MpULrcliY2kqJ50lHPZbQY+H/5K4iN5MBS6CodFfncrFcHiQjwsFZweNsL/1cRFx8cy5KDUb51O5Xs6FAYFxakBXhz/XMBcP4ZaYi8CHH0xjKkjiIs+EcDDjBB0dbtC5OEdcBIbqbvKL1nMudIBxMnLxPdwic1GagtjAXCz4k55tFuDvNxtSL7fCrRs6F62SjMa9P9mVb+s5FxjYOGEutlHtAQixZ73lZGJD4uLDZ6Rk48R7ODTdBBcFv99QmjZLhxNcfX0sLuyRPMtU3dDb+TRbRE4EFz7m4pYfctLUhsYEYgNz0c4SmO0cXxedAO7Pi+Uh9RcxwK+rypMXNh7cXK5qbYyM0ruHyxcDNzrZrnblsU4o41AzObx7/YKJi0DxqUdNIDa+j8TF8MJ1y1WrGKLq1ZzFTbVFxXEDOIPox3LVXWGtq57rXBzJjYJm9FUu2O5/cYfby4tOzatGV7a8smNVpOePn7BC3/a/bO9Nwp9mk2Mi7NsoNW5jLnBGe/tFPXBssfGAuUiZxT26dryiBMut7shtKuWo6z8F/7yq1izc2BM9teqwLe4l2Stsb3QOcVpXPlfRKjt/0GN+vMK2Fskbh70ONY45zigugojqnF0FczFXV47UDNVjwoXM2MrORUVlIvrrnQu5keCi4lhqY3cXWu16encLXNZUogJW9SsXy6jFEWf3ijrjChubg6S/bl+3UM3WfZz3M3NRsO/U8LbZHEdsZOfiyY0JqFbjfi4PsBkWXCw7RPe5QNwVnMs5Ii70iVkiV2w41lmF5yA2OtfsII8yQ3C1mmZQMTQumo1HHMtgLrQk6mFJM1T3ftLVSGTlwl7kg8Jz3eLPn4uB44Ae8hYRGcDFE39Qi9VqFXWfA4/yIjt25Vi/Ehy58odv2I0fgvApQI9BsfbEG+1AI5fwzxfs1p1E1/3clIngxokDc0Ek7gix8Zx0OQrfMBcJL2UMgArPubliNzmseGA5PGRqOBdPIQNWLQi3rj/VHE5bsIU1W65JPzEqinGPqQj8v/fp+lPVcYWxXBFkWOwSlAti5HoX+h4EzIVknACYiwXi+CmIjYxcXK/Ac32DwxfuEtw4fGFcFKPBUFtcZjboqFLmvVdjTW2z94bA6yf8POZUeM7uDvjRqxvBRo27IH7hn9oJuf9J8txSeqn5SAitpRQuaLExkhrCNbttY13iJusQy1WipqHLyIjtPnRJtBEFmPY1bLcstuEGvPe1eikw7i4Y9x1u69xd7FtWb8R2aMhjM90FMf9jLSZ3BE71UfulxJ2hix81sdEaZdIP14m29wyNRAyqPVpDGP/86URcOHJIcw1PMtieoanrwLhzzw1kC0cjsCP2HEkHai4I/E9tOaEXApyhcUHtn6unc0GIjdYIdgpzsWTi4gZM+I6+C/pedKngQrU+NvQd75OfzKWXK2ozRi7EQ3/KJLEhhmC8+HMA7Fqe4Q5TchNIXzSo/RmTqLrYSL4sxmkGLmBYkPFigWkw8TRyLjzN+MAefpZLl+y6zRoePUI2UOEoN1/cyw8gFlaemKIlj1wDTmIuWtT+9YwJbbsvi41G9oFxmqFONPHJYprWqsptCY0LjFZ55MODULnr2HDhsgwEszhGBlglHiABjUqvw/ChRSDCWQoXUrIoMYkqi40RVF8WLpgYoIcF97W873k4Qyhq1s0WV7+8n6UBxI07jANIfBiSF3zUcOHABaT0zPxhzwqdHInw/Br+Vx0XG4rXzc5FKDYQF9lThUTNrgr4kw1Pli2LWuCC8pR/osdYxDNHlPc+ZoeDYgOe6VRJIfbz4JpYtyvXZnSqbklgu9/r9cJ/qFwc/r6XPPTDKElU/624gLHvGpxfVRo1wAUVzLNdcWz5RHhvz8JWhxNrSl7syI4e2JXyTtDE4LlPSt3e/HzExSHiIiRho9vp4W4cJYlaKLzEXGSX33rNrgZ43FYMZ2DhO392uW8hoj6mtWMuoJuw+eDiApiEJBOZtQoBilGcEtjFJo1lIXUZE+L5V7czH6Ab/kBcNKKJvG6w4zU2RqNxcf9GXECPhKkgCsyk83gIHn6KOJULSJ9i47crm7EihMHGu4cGfB4EYjNPpLI4W2psVQiNU7cXMQFcbChc+AEX851un7cfIaEd4D4uZMs+B47r4Zbo170hVgwkM4liEfcHcEGlpzUueJQrAh9bkWUwcMy57l1l4EDeK07xMvuqaQ4wTvMGLvwCcBHYrw7EQVkTdwwTc1GnuSjSGWsFYJXQXJIKjQvhvbkx5+ICfttKFKyDO29FacY6k8VuK4rn5sYJc7GtcGF3+d5S+HNELvqxjco+r5SBC++tuOBTSmIcsJ4T44QrEtLYR4CslogUjhT24LfkcMLICTMR9HbkHxAXoZcQXMz3IjuVLXHH0Y/HxV1aWwG9ZlcDzDWYbBRgHC7AVfNNQzV4hp7VU68cQGbc18oGnsGPj9jGxglz4Ru56NyHB47Gxd04XEi1iVtkE5hnswaLSaiNwQU3f/BcH6uyDCY5zDoNbi2OWIFdHiezwAKlxvxuR2VivvPbL8hchPJB5eLzuFz009oK6DW7GuBZM8W0MkbjogJpC6YnNFk2ULtaBc+jxFsYu5CSYczgCau+Nig63fnIu662ZC4Kr5yMzkv4M1MSVeDxjbioSFo4BaNxIZLx4bl1WcbdgSmXBLkm7FBgwpAdwo7HWfRWR2WClyTbiAuWznuGMdQ5CH9lSRbFiLkoZedCr9nVsCMLsGSMxgUPhCJlzcYfTu3BjJwhEyaeEqzcec49Gmmu5rkbEhe9bj/OZmhcFOyXiI1OlPYejYv9cbjYTucCHl6qTkDHiFzwJ3sgLoMHgRg2hosVidQhH0s2l36S60dchMYJD3XkL0Ra8ORXj3Mx2sIHMRfN+7S2AlTNrgpeJJPFSI3IRWEguhN2V/FeKmUV41IOwxiGcaaXJQykSa0DwUW3oSRiKS4CY9PtdKJ5vgyJOwRUyfCS1lbAz8DFJh73Gi4lzzoqF5vCDDFHLXe7qLShMlI2ZNSViSaYAfkpBhreKbjoamlvmouC3+xGeVucLKo/pD2WiIuDlKboUoaaXQm8woAqubxyati1jsoF2Pdieagb94KIpMiSvydmjayyvPmSn4hdT3Y2L4IL7XRNmotC4Sya38BczNWNpQGA8zfjAkJPiowdp2jhgo9RueD23WKKUtXYV+AxPP2EvLJEK+uBWd8KM63yPFQCF6WYC2oqbk9eJ6L9PXEOI62qhERCzS4Cr9XT6rgrUV+512LMjswFLwgBe6MmVHehMMsrymHccMB3aJeCCUNPmq0F3GfhgpwWXVPW7EheOPPs7bjgj2exNsCddXTNazHERNPIXPCCEEaIJihti2eJnd2YjeGNwzfrU1yifDS6YdmZxFxoFj+Fi4K2tNBS3ZwiRFyQVSU0UupEAaJ6r+oWK8Po77CvLniHoMLB0bm4ROWyRMB0xOugAsKLN8s7OzubfxbjindqKvwasasEf33Bha8ehbggp0W/aovZ1M0LZ6ZV+NDIxkVhV1TdWyuuUx0McFWrG/vH0bkooDcrqBm8YVxlbnk113VrceLYokq2RPRV1GViAhcHKVwUtqjVAQ3R7Xhc4AvQdaIMuNq7iOaQirIXGYMLsO9F00zFkUe89wGDlM6OxDenJgvuelm4MEyLUgtntumFM0/G4iK9ZhdQcapkh3iSvx2Di9i+0+8pFexrl5pCsdyfholwUbyoXSyBCzQVZ5qiXrulhsY3QmyMxwU+r7FONMJw4OpseM7uRFovxBP3w8aJ7cuVmsqGVXaNFbKrItRQmzwKLrSQNNO06FdqTVlCbJwos+dZsLaVpX6a43LglHHU49VwcBOh4pQDuNT0zzLbZWk7dqId5bKTkPFa9lw0v2h5rltJuNkLXkitBln7Zi7QtGjCFLX/QBkq7Us7alVJOvZu5ROnL3wwPB44gfcslwMn6pR3N7WA8qqyHIKqaBqyXcTTDDsqptobduabYnTp8MrVC8pno0tB1kYroo250Mpc06ao+Z9KLpypftZzRC78z9pnmDItQmEPdzYrlc3Lq8SeexOsXl0uV5YzXHkTz2JgPCdw0Uzmoie8yGfKUMliA1WVtFJfvic/wzQzi1CwNJalm0PBRU97SSVtivpX95XbNWLhTEVsqBU+CVCNE7d7M8IF5FUI5XieiQtyyuFXB1Wu7ZGr9MfTGttoZiqpU/3PbcNnmGZlXEDVKaEcz8xcoGlRcj3H1w6qXCvY3xLFhh2/SZnAxdqD+RtxxnzU/xn0aXCObFyQS6y8strbpg+/U8SGeJOyYUroGowTDIsZWSwYMlxEES3iQsv/yeuk6UuswPRspys8e4rYgGVbaC7Mxgk4Hfuv/28BXlyliogSuFhVFpJQl1hp8lTWb7EpRWywNympl8RSP2A5K58/NHvuwHIILvQ8h7ZoXUtaPP6AmvpIERvhm5Q6F3u3CUMi/AzT7HzfTSvsRDjpmrkIjIpChrSeI8lFmtiw71oKF4SswzxO+hmm/xaukiqi43FB5TkOD/QlVkQUdC8Kz+XOShEbh1JMlhQ5TfCNuP8o+FIMdDp9o5vERWintJULRENeR9hVQ6y9drLYiBsmRU71mTFOO5fR07paASoMi0WlcUEuscIfbKgj1NPtKWIDzpwcObXnZsY4HTtO8frJcvjMBTnhh7kwvqKStJ7jyXyPKq3KMLPxkYxT4LDxCmOmd5liLu7M59LXc2wJsfHY7VBcpIiND2KcAANprskyvfq6Ld6qmE947zppPcft5m+644xi40NFTiEcmQrTWwKIi24rIftGrOd4x/edmx7iH3Xqk2AfyDgxSDVRXsLiHzEX853unfmE463nSImND2ScGK7+hYVwrWpZmYGXcY9fTOrNJyy1RYkNn2pon5Ve+BDboL4/bDROX2fMOAGujj9Vw+Wkq9fJM7V2B78N0+keJPCmiQ1qPcftx8CcIRVCzWx8EOMkI8NzttpAZipkI6nQIEFsMJzwzwIgFUKJjQ9hnMbAeU96gbL3mrDaVuJ6jvY5Ximq0fdhOyU2JOM0O7Juctx3ZUN1n9A1xsXjI+NkUCHEZz0/jnEaEYev8tDojSw2Tu6JzwI0DvgQI8VGbpxoPMsv3XeTKgR0sdHQ1swWFsyHgwixMbuR04RYPVAM1Z3WxBbuWBMbBjQO0MrbitiYodm66SNK9JnFxna/C0vkFKjF43U0W305CkAzG7lxSsNd1yg2ThrhPhTx6ovHK0Oise9rF9hrL9VZ5JQbpzRsq2KDaTl7f56zFEe8/r15aDQbJTpBYp/eLiwsPOSRUxYQYgOtfidHvLrYMBgnCbb/N/6OmYCtio2WuqwRini1xeNNxinHeFDEBrXA1Ctvq4mNxsHEn/7MgbFPrPCFRsqvZ+R4sdhINk45xoIiNrCB6qp1zmLx+Nw4vREUsQFDotfrE3r88KXVaLRy4/R2uFOHRmicDG23T05y5faWkMWGbpxy/E0IsdHpdSnjlOMvIhQbAczGKcdfxEa/8ap/XC/H9PE/jz/0hbk7zmkAAAAASUVORK5CYII=;" vertex="1" parent="1">
          <mxGeometry x="478.01" y="326.5" width="83.98" height="27" as="geometry" />
        </mxCell>
        <mxCell id="dHZ3otPqyAfwlpbNGFlz-16" value="" style="shape=image;verticalLabelPosition=bottom;labelBackgroundColor=default;verticalAlign=top;aspect=fixed;imageAspect=0;image=data:image/png,iVBORw0KGgoAAAANSUhEUgAAAYsAAAB/CAMAAAApSh4CAAAA51BMVEX////RSptJI2W6aaqlN5VHIGQ/D16lmbHONZP59/o0AFZGHWM+C103AFnQRplQLmq2XqW4Y6fPP5e1WqNCFmBiSHiwprnPO5WjMZNBE1+eG4318/ahKJD02ejVXaTw4e378PbjnMS1q77cf7Xz5/HMxdJ+ao/uw9vpsdDehrjru9bVqMu+c6/s2ujJjr1WNm/r6O2YiaXo0OPXZ6nlpMnwzODhkr/hwtrcuNWCb5Pd2OG/tsfOyNRvV4OMe5vTVaDPm8TDf7XadbDRn8ZiRXlsVIGpQ5qaAIjYsNAbAEjBerKTg6GuT6DqZaX1AAASjElEQVR4nO1da0PbuBINCU6wE4eEuCSEAC6vtjwSoHSB8IbSspT//3uubY3kkTSynQdlb/D5sNvY8gMda2bOaCwXCn8TX7Zu575/3v6r18xBwP+81K7PzdWXFr699618cKxtLSzNAZaWvrz37Xxg7K0v1OcQ2t9zQ/Uu8E8j4yShvvD5vW/rAwIbJ4yluR/vfWsfDKpxkobGlv/et/dxQBkniY321/e+xQ8Ck3GSfPj62nvf5gdAgnGSDdU/732nM44044SRi423RBbjJBmqXGy8EZKNUzBedJ5ysfEWSDZO9Xb91C78Q3CVi41pI9k41RfWmWfYWG8TO7fsd777WUKKcVr4FoevX4nBU1/IxcZ0kGaclk593NzeInhrr2+8093PEtKM03c9bF27pXx4LjYmxJfsxgnjlPLhudiYAOmRk2889GFBPyIXG+NiDOOE8WWJMlSnf+nmZwpjGieMXGxMBfb6uMYJIxcb08B6AhNc1mUBKTbymY1R8INwvCMYJ4RcbEyKz7TT1mRdFqzN5WJjEvxDmajUyMmEXGxMgn/0R3lU44Thf9d9+NzCgz/FO55dqDaKJcQnQC42xobMxUiRkwmk2LjNqxNScYq5WBrfOGHkYmM8fEVcLE1NDeRiYxy8DRcmseFP7QKzCIkL5mGnk2H9QYmNdp69TYDORf/1bjqWnRAb9bmpnHlGsYe5iGpq7prNxtlUzr2ti43cZyTgS1vl4rFZKjXup2NMNLFRX5/KeWcO0cOPuahHqaOQi1KptT+di6hioz2d084U/P1GM/z/D42L/YiLUrN0MpULrcliY2kqJ50lHPZbQY+H/5K4iN5MBS6CodFfncrFcHiQjwsFZweNsL/1cRFx8cy5KDUb51O5Xs6FAYFxakBXhz/XMBcP4ZaYi8CHH0xjKkjiIs+EcDDjBB0dbtC5OEdcBIbqbvKL1nMudIBxMnLxPdwic1GagtjAXCz4k55tFuDvNxtSL7fCrRs6F62SjMa9P9mVb+s5FxjYOGEutlHtAQixZ73lZGJD4uLDZ6Rk48R7ODTdBBcFv99QmjZLhxNcfX0sLuyRPMtU3dDb+TRbRE4EFz7m4pYfctLUhsYEYgNz0c4SmO0cXxedAO7Pi+Uh9RcxwK+rypMXNh7cXK5qbYyM0ruHyxcDNzrZrnblsU4o41AzObx7/YKJi0DxqUdNIDa+j8TF8MJ1y1WrGKLq1ZzFTbVFxXEDOIPox3LVXWGtq57rXBzJjYJm9FUu2O5/cYfby4tOzatGV7a8smNVpOePn7BC3/a/bO9Nwp9mk2Mi7NsoNW5jLnBGe/tFPXBssfGAuUiZxT26dryiBMut7shtKuWo6z8F/7yq1izc2BM9teqwLe4l2Stsb3QOcVpXPlfRKjt/0GN+vMK2Fskbh70ONY45zigugojqnF0FczFXV47UDNVjwoXM2MrORUVlIvrrnQu5keCi4lhqY3cXWu16encLXNZUogJW9SsXy6jFEWf3ijrjChubg6S/bl+3UM3WfZz3M3NRsO/U8LbZHEdsZOfiyY0JqFbjfi4PsBkWXCw7RPe5QNwVnMs5Ii70iVkiV2w41lmF5yA2OtfsII8yQ3C1mmZQMTQumo1HHMtgLrQk6mFJM1T3ftLVSGTlwl7kg8Jz3eLPn4uB44Ae8hYRGcDFE39Qi9VqFXWfA4/yIjt25Vi/Ehy58odv2I0fgvApQI9BsfbEG+1AI5fwzxfs1p1E1/3clIngxokDc0Ek7gix8Zx0OQrfMBcJL2UMgArPubliNzmseGA5PGRqOBdPIQNWLQi3rj/VHE5bsIU1W65JPzEqinGPqQj8v/fp+lPVcYWxXBFkWOwSlAti5HoX+h4EzIVknACYiwXi+CmIjYxcXK/Ac32DwxfuEtw4fGFcFKPBUFtcZjboqFLmvVdjTW2z94bA6yf8POZUeM7uDvjRqxvBRo27IH7hn9oJuf9J8txSeqn5SAitpRQuaLExkhrCNbttY13iJusQy1WipqHLyIjtPnRJtBEFmPY1bLcstuEGvPe1eikw7i4Y9x1u69xd7FtWb8R2aMhjM90FMf9jLSZ3BE71UfulxJ2hix81sdEaZdIP14m29wyNRAyqPVpDGP/86URcOHJIcw1PMtieoanrwLhzzw1kC0cjsCP2HEkHai4I/E9tOaEXApyhcUHtn6unc0GIjdYIdgpzsWTi4gZM+I6+C/pedKngQrU+NvQd75OfzKWXK2ozRi7EQ3/KJLEhhmC8+HMA7Fqe4Q5TchNIXzSo/RmTqLrYSL4sxmkGLmBYkPFigWkw8TRyLjzN+MAefpZLl+y6zRoePUI2UOEoN1/cyw8gFlaemKIlj1wDTmIuWtT+9YwJbbsvi41G9oFxmqFONPHJYprWqsptCY0LjFZ55MODULnr2HDhsgwEszhGBlglHiABjUqvw/ChRSDCWQoXUrIoMYkqi40RVF8WLpgYoIcF97W873k4Qyhq1s0WV7+8n6UBxI07jANIfBiSF3zUcOHABaT0zPxhzwqdHInw/Br+Vx0XG4rXzc5FKDYQF9lThUTNrgr4kw1Pli2LWuCC8pR/osdYxDNHlPc+ZoeDYgOe6VRJIfbz4JpYtyvXZnSqbklgu9/r9cJ/qFwc/r6XPPTDKElU/624gLHvGpxfVRo1wAUVzLNdcWz5RHhvz8JWhxNrSl7syI4e2JXyTtDE4LlPSt3e/HzExSHiIiRho9vp4W4cJYlaKLzEXGSX33rNrgZ43FYMZ2DhO392uW8hoj6mtWMuoJuw+eDiApiEJBOZtQoBilGcEtjFJo1lIXUZE+L5V7czH6Ab/kBcNKKJvG6w4zU2RqNxcf9GXECPhKkgCsyk83gIHn6KOJULSJ9i47crm7EihMHGu4cGfB4EYjNPpLI4W2psVQiNU7cXMQFcbChc+AEX851un7cfIaEd4D4uZMs+B47r4Zbo170hVgwkM4liEfcHcEGlpzUueJQrAh9bkWUwcMy57l1l4EDeK07xMvuqaQ4wTvMGLvwCcBHYrw7EQVkTdwwTc1GnuSjSGWsFYJXQXJIKjQvhvbkx5+ICfttKFKyDO29FacY6k8VuK4rn5sYJc7GtcGF3+d5S+HNELvqxjco+r5SBC++tuOBTSmIcsJ4T44QrEtLYR4CslogUjhT24LfkcMLICTMR9HbkHxAXoZcQXMz3IjuVLXHH0Y/HxV1aWwG9ZlcDzDWYbBRgHC7AVfNNQzV4hp7VU68cQGbc18oGnsGPj9jGxglz4Ru56NyHB47Gxd04XEi1iVtkE5hnswaLSaiNwQU3f/BcH6uyDCY5zDoNbi2OWIFdHiezwAKlxvxuR2VivvPbL8hchPJB5eLzuFz009oK6DW7GuBZM8W0MkbjogJpC6YnNFk2ULtaBc+jxFsYu5CSYczgCau+Nig63fnIu662ZC4Kr5yMzkv4M1MSVeDxjbioSFo4BaNxIZLx4bl1WcbdgSmXBLkm7FBgwpAdwo7HWfRWR2WClyTbiAuWznuGMdQ5CH9lSRbFiLkoZedCr9nVsCMLsGSMxgUPhCJlzcYfTu3BjJwhEyaeEqzcec49Gmmu5rkbEhe9bj/OZmhcFOyXiI1OlPYejYv9cbjYTucCHl6qTkDHiFzwJ3sgLoMHgRg2hosVidQhH0s2l36S60dchMYJD3XkL0Ra8ORXj3Mx2sIHMRfN+7S2AlTNrgpeJJPFSI3IRWEguhN2V/FeKmUV41IOwxiGcaaXJQykSa0DwUW3oSRiKS4CY9PtdKJ5vgyJOwRUyfCS1lbAz8DFJh73Gi4lzzoqF5vCDDFHLXe7qLShMlI2ZNSViSaYAfkpBhreKbjoamlvmouC3+xGeVucLKo/pD2WiIuDlKboUoaaXQm8woAqubxyati1jsoF2Pdieagb94KIpMiSvydmjayyvPmSn4hdT3Y2L4IL7XRNmotC4Sya38BczNWNpQGA8zfjAkJPiowdp2jhgo9RueD23WKKUtXYV+AxPP2EvLJEK+uBWd8KM63yPFQCF6WYC2oqbk9eJ6L9PXEOI62qhERCzS4Cr9XT6rgrUV+512LMjswFLwgBe6MmVHehMMsrymHccMB3aJeCCUNPmq0F3GfhgpwWXVPW7EheOPPs7bjgj2exNsCddXTNazHERNPIXPCCEEaIJihti2eJnd2YjeGNwzfrU1yifDS6YdmZxFxoFj+Fi4K2tNBS3ZwiRFyQVSU0UupEAaJ6r+oWK8Po77CvLniHoMLB0bm4ROWyRMB0xOugAsKLN8s7OzubfxbjindqKvwasasEf33Bha8ehbggp0W/aovZ1M0LZ6ZV+NDIxkVhV1TdWyuuUx0McFWrG/vH0bkooDcrqBm8YVxlbnk113VrceLYokq2RPRV1GViAhcHKVwUtqjVAQ3R7Xhc4AvQdaIMuNq7iOaQirIXGYMLsO9F00zFkUe89wGDlM6OxDenJgvuelm4MEyLUgtntumFM0/G4iK9ZhdQcapkh3iSvx2Di9i+0+8pFexrl5pCsdyfholwUbyoXSyBCzQVZ5qiXrulhsY3QmyMxwU+r7FONMJw4OpseM7uRFovxBP3w8aJ7cuVmsqGVXaNFbKrItRQmzwKLrSQNNO06FdqTVlCbJwos+dZsLaVpX6a43LglHHU49VwcBOh4pQDuNT0zzLbZWk7dqId5bKTkPFa9lw0v2h5rltJuNkLXkitBln7Zi7QtGjCFLX/QBkq7Us7alVJOvZu5ROnL3wwPB44gfcslwMn6pR3N7WA8qqyHIKqaBqyXcTTDDsqptobduabYnTp8MrVC8pno0tB1kYroo250Mpc06ao+Z9KLpypftZzRC78z9pnmDItQmEPdzYrlc3Lq8SeexOsXl0uV5YzXHkTz2JgPCdw0Uzmoie8yGfKUMliA1WVtFJfvic/wzQzi1CwNJalm0PBRU97SSVtivpX95XbNWLhTEVsqBU+CVCNE7d7M8IF5FUI5XieiQtyyuFXB1Wu7ZGr9MfTGttoZiqpU/3PbcNnmGZlXEDVKaEcz8xcoGlRcj3H1w6qXCvY3xLFhh2/SZnAxdqD+RtxxnzU/xn0aXCObFyQS6y8strbpg+/U8SGeJOyYUroGowTDIsZWSwYMlxEES3iQsv/yeuk6UuswPRspys8e4rYgGVbaC7Mxgk4Hfuv/28BXlyliogSuFhVFpJQl1hp8lTWb7EpRWywNympl8RSP2A5K58/NHvuwHIILvQ8h7ZoXUtaPP6AmvpIERvhm5Q6F3u3CUMi/AzT7HzfTSvsRDjpmrkIjIpChrSeI8lFmtiw71oKF4SswzxO+hmm/xaukiqi43FB5TkOD/QlVkQUdC8Kz+XOShEbh1JMlhQ5TfCNuP8o+FIMdDp9o5vERWintJULRENeR9hVQ6y9drLYiBsmRU71mTFOO5fR07paASoMi0WlcUEuscIfbKgj1NPtKWIDzpwcObXnZsY4HTtO8frJcvjMBTnhh7kwvqKStJ7jyXyPKq3KMLPxkYxT4LDxCmOmd5liLu7M59LXc2wJsfHY7VBcpIiND2KcAANprskyvfq6Ld6qmE947zppPcft5m+644xi40NFTiEcmQrTWwKIi24rIftGrOd4x/edmx7iH3Xqk2AfyDgxSDVRXsLiHzEX853unfmE463nSImND2ScGK7+hYVwrWpZmYGXcY9fTOrNJyy1RYkNn2pon5Ve+BDboL4/bDROX2fMOAGujj9Vw+Wkq9fJM7V2B78N0+keJPCmiQ1qPcftx8CcIRVCzWx8EOMkI8NzttpAZipkI6nQIEFsMJzwzwIgFUKJjQ9hnMbAeU96gbL3mrDaVuJ6jvY5Ximq0fdhOyU2JOM0O7Juctx3ZUN1n9A1xsXjI+NkUCHEZz0/jnEaEYev8tDojSw2Tu6JzwI0DvgQI8VGbpxoPMsv3XeTKgR0sdHQ1swWFsyHgwixMbuR04RYPVAM1Z3WxBbuWBMbBjQO0MrbitiYodm66SNK9JnFxna/C0vkFKjF43U0W305CkAzG7lxSsNd1yg2ThrhPhTx6ovHK0Oise9rF9hrL9VZ5JQbpzRsq2KDaTl7f56zFEe8/r15aDQbJTpBYp/eLiwsPOSRUxYQYgOtfidHvLrYMBgnCbb/N/6OmYCtio2WuqwRini1xeNNxinHeFDEBrXA1Ctvq4mNxsHEn/7MgbFPrPCFRsqvZ+R4sdhINk45xoIiNrCB6qp1zmLx+Nw4vREUsQFDotfrE3r88KXVaLRy4/R2uFOHRmicDG23T05y5faWkMWGbpxy/E0IsdHpdSnjlOMvIhQbAczGKcdfxEa/8ap/XC/H9PE/jz/0hbk7zmkAAAAASUVORK5CYII=;" vertex="1" parent="1">
          <mxGeometry x="656.02" y="326.5" width="83.98" height="27" as="geometry" />
        </mxCell>
        <mxCell id="dHZ3otPqyAfwlpbNGFlz-17" style="rounded=0;orthogonalLoop=1;jettySize=auto;html=1;startArrow=none;startFill=0;entryX=0;entryY=0.611;entryDx=0;entryDy=0;entryPerimeter=0;strokeWidth=3;fillColor=#d5e8d4;strokeColor=#82b366;" edge="1" parent="1" source="dHZ3otPqyAfwlpbNGFlz-18" target="dHZ3otPqyAfwlpbNGFlz-4">
          <mxGeometry relative="1" as="geometry" />
        </mxCell>
        <mxCell id="dHZ3otPqyAfwlpbNGFlz-18" value="Ingress Gateway" style="rounded=0;whiteSpace=wrap;html=1;align=left;verticalAlign=top;fillColor=#f5f5f5;fontColor=#333333;strokeColor=#666666;" vertex="1" parent="1">
          <mxGeometry x="70" y="260" width="120" height="140" as="geometry" />
        </mxCell>
        <mxCell id="dHZ3otPqyAfwlpbNGFlz-19" value="" style="rounded=1;whiteSpace=wrap;html=1;fillColor=#dae8fc;strokeColor=#6c8ebf;" vertex="1" parent="1">
          <mxGeometry x="80" y="320" width="100" height="40" as="geometry" />
        </mxCell>
        <mxCell id="dHZ3otPqyAfwlpbNGFlz-20" value="" style="shape=image;verticalLabelPosition=bottom;labelBackgroundColor=default;verticalAlign=top;aspect=fixed;imageAspect=0;image=data:image/png,iVBORw0KGgoAAAANSUhEUgAAAYsAAAB/CAMAAAApSh4CAAAA51BMVEX////RSptJI2W6aaqlN5VHIGQ/D16lmbHONZP59/o0AFZGHWM+C103AFnQRplQLmq2XqW4Y6fPP5e1WqNCFmBiSHiwprnPO5WjMZNBE1+eG4318/ahKJD02ejVXaTw4e378PbjnMS1q77cf7Xz5/HMxdJ+ao/uw9vpsdDehrjru9bVqMu+c6/s2ujJjr1WNm/r6O2YiaXo0OPXZ6nlpMnwzODhkr/hwtrcuNWCb5Pd2OG/tsfOyNRvV4OMe5vTVaDPm8TDf7XadbDRn8ZiRXlsVIGpQ5qaAIjYsNAbAEjBerKTg6GuT6DqZaX1AAASjElEQVR4nO1da0PbuBINCU6wE4eEuCSEAC6vtjwSoHSB8IbSspT//3uubY3kkTSynQdlb/D5sNvY8gMda2bOaCwXCn8TX7Zu575/3v6r18xBwP+81K7PzdWXFr699618cKxtLSzNAZaWvrz37Xxg7K0v1OcQ2t9zQ/Uu8E8j4yShvvD5vW/rAwIbJ4yluR/vfWsfDKpxkobGlv/et/dxQBkniY321/e+xQ8Ck3GSfPj62nvf5gdAgnGSDdU/732nM44044SRi423RBbjJBmqXGy8EZKNUzBedJ5ysfEWSDZO9Xb91C78Q3CVi41pI9k41RfWmWfYWG8TO7fsd777WUKKcVr4FoevX4nBU1/IxcZ0kGaclk593NzeInhrr2+8093PEtKM03c9bF27pXx4LjYmxJfsxgnjlPLhudiYAOmRk2889GFBPyIXG+NiDOOE8WWJMlSnf+nmZwpjGieMXGxMBfb6uMYJIxcb08B6AhNc1mUBKTbymY1R8INwvCMYJ4RcbEyKz7TT1mRdFqzN5WJjEvxDmajUyMmEXGxMgn/0R3lU44Thf9d9+NzCgz/FO55dqDaKJcQnQC42xobMxUiRkwmk2LjNqxNScYq5WBrfOGHkYmM8fEVcLE1NDeRiYxy8DRcmseFP7QKzCIkL5mGnk2H9QYmNdp69TYDORf/1bjqWnRAb9bmpnHlGsYe5iGpq7prNxtlUzr2ti43cZyTgS1vl4rFZKjXup2NMNLFRX5/KeWcO0cOPuahHqaOQi1KptT+di6hioz2d084U/P1GM/z/D42L/YiLUrN0MpULrcliY2kqJ50lHPZbQY+H/5K4iN5MBS6CodFfncrFcHiQjwsFZweNsL/1cRFx8cy5KDUb51O5Xs6FAYFxakBXhz/XMBcP4ZaYi8CHH0xjKkjiIs+EcDDjBB0dbtC5OEdcBIbqbvKL1nMudIBxMnLxPdwic1GagtjAXCz4k55tFuDvNxtSL7fCrRs6F62SjMa9P9mVb+s5FxjYOGEutlHtAQixZ73lZGJD4uLDZ6Rk48R7ODTdBBcFv99QmjZLhxNcfX0sLuyRPMtU3dDb+TRbRE4EFz7m4pYfctLUhsYEYgNz0c4SmO0cXxedAO7Pi+Uh9RcxwK+rypMXNh7cXK5qbYyM0ruHyxcDNzrZrnblsU4o41AzObx7/YKJi0DxqUdNIDa+j8TF8MJ1y1WrGKLq1ZzFTbVFxXEDOIPox3LVXWGtq57rXBzJjYJm9FUu2O5/cYfby4tOzatGV7a8smNVpOePn7BC3/a/bO9Nwp9mk2Mi7NsoNW5jLnBGe/tFPXBssfGAuUiZxT26dryiBMut7shtKuWo6z8F/7yq1izc2BM9teqwLe4l2Stsb3QOcVpXPlfRKjt/0GN+vMK2Fskbh70ONY45zigugojqnF0FczFXV47UDNVjwoXM2MrORUVlIvrrnQu5keCi4lhqY3cXWu16encLXNZUogJW9SsXy6jFEWf3ijrjChubg6S/bl+3UM3WfZz3M3NRsO/U8LbZHEdsZOfiyY0JqFbjfi4PsBkWXCw7RPe5QNwVnMs5Ii70iVkiV2w41lmF5yA2OtfsII8yQ3C1mmZQMTQumo1HHMtgLrQk6mFJM1T3ftLVSGTlwl7kg8Jz3eLPn4uB44Ae8hYRGcDFE39Qi9VqFXWfA4/yIjt25Vi/Ehy58odv2I0fgvApQI9BsfbEG+1AI5fwzxfs1p1E1/3clIngxokDc0Ek7gix8Zx0OQrfMBcJL2UMgArPubliNzmseGA5PGRqOBdPIQNWLQi3rj/VHE5bsIU1W65JPzEqinGPqQj8v/fp+lPVcYWxXBFkWOwSlAti5HoX+h4EzIVknACYiwXi+CmIjYxcXK/Ac32DwxfuEtw4fGFcFKPBUFtcZjboqFLmvVdjTW2z94bA6yf8POZUeM7uDvjRqxvBRo27IH7hn9oJuf9J8txSeqn5SAitpRQuaLExkhrCNbttY13iJusQy1WipqHLyIjtPnRJtBEFmPY1bLcstuEGvPe1eikw7i4Y9x1u69xd7FtWb8R2aMhjM90FMf9jLSZ3BE71UfulxJ2hix81sdEaZdIP14m29wyNRAyqPVpDGP/86URcOHJIcw1PMtieoanrwLhzzw1kC0cjsCP2HEkHai4I/E9tOaEXApyhcUHtn6unc0GIjdYIdgpzsWTi4gZM+I6+C/pedKngQrU+NvQd75OfzKWXK2ozRi7EQ3/KJLEhhmC8+HMA7Fqe4Q5TchNIXzSo/RmTqLrYSL4sxmkGLmBYkPFigWkw8TRyLjzN+MAefpZLl+y6zRoePUI2UOEoN1/cyw8gFlaemKIlj1wDTmIuWtT+9YwJbbsvi41G9oFxmqFONPHJYprWqsptCY0LjFZ55MODULnr2HDhsgwEszhGBlglHiABjUqvw/ChRSDCWQoXUrIoMYkqi40RVF8WLpgYoIcF97W873k4Qyhq1s0WV7+8n6UBxI07jANIfBiSF3zUcOHABaT0zPxhzwqdHInw/Br+Vx0XG4rXzc5FKDYQF9lThUTNrgr4kw1Pli2LWuCC8pR/osdYxDNHlPc+ZoeDYgOe6VRJIfbz4JpYtyvXZnSqbklgu9/r9cJ/qFwc/r6XPPTDKElU/624gLHvGpxfVRo1wAUVzLNdcWz5RHhvz8JWhxNrSl7syI4e2JXyTtDE4LlPSt3e/HzExSHiIiRho9vp4W4cJYlaKLzEXGSX33rNrgZ43FYMZ2DhO392uW8hoj6mtWMuoJuw+eDiApiEJBOZtQoBilGcEtjFJo1lIXUZE+L5V7czH6Ab/kBcNKKJvG6w4zU2RqNxcf9GXECPhKkgCsyk83gIHn6KOJULSJ9i47crm7EihMHGu4cGfB4EYjNPpLI4W2psVQiNU7cXMQFcbChc+AEX851un7cfIaEd4D4uZMs+B47r4Zbo170hVgwkM4liEfcHcEGlpzUueJQrAh9bkWUwcMy57l1l4EDeK07xMvuqaQ4wTvMGLvwCcBHYrw7EQVkTdwwTc1GnuSjSGWsFYJXQXJIKjQvhvbkx5+ICfttKFKyDO29FacY6k8VuK4rn5sYJc7GtcGF3+d5S+HNELvqxjco+r5SBC++tuOBTSmIcsJ4T44QrEtLYR4CslogUjhT24LfkcMLICTMR9HbkHxAXoZcQXMz3IjuVLXHH0Y/HxV1aWwG9ZlcDzDWYbBRgHC7AVfNNQzV4hp7VU68cQGbc18oGnsGPj9jGxglz4Ru56NyHB47Gxd04XEi1iVtkE5hnswaLSaiNwQU3f/BcH6uyDCY5zDoNbi2OWIFdHiezwAKlxvxuR2VivvPbL8hchPJB5eLzuFz009oK6DW7GuBZM8W0MkbjogJpC6YnNFk2ULtaBc+jxFsYu5CSYczgCau+Nig63fnIu662ZC4Kr5yMzkv4M1MSVeDxjbioSFo4BaNxIZLx4bl1WcbdgSmXBLkm7FBgwpAdwo7HWfRWR2WClyTbiAuWznuGMdQ5CH9lSRbFiLkoZedCr9nVsCMLsGSMxgUPhCJlzcYfTu3BjJwhEyaeEqzcec49Gmmu5rkbEhe9bj/OZmhcFOyXiI1OlPYejYv9cbjYTucCHl6qTkDHiFzwJ3sgLoMHgRg2hosVidQhH0s2l36S60dchMYJD3XkL0Ra8ORXj3Mx2sIHMRfN+7S2AlTNrgpeJJPFSI3IRWEguhN2V/FeKmUV41IOwxiGcaaXJQykSa0DwUW3oSRiKS4CY9PtdKJ5vgyJOwRUyfCS1lbAz8DFJh73Gi4lzzoqF5vCDDFHLXe7qLShMlI2ZNSViSaYAfkpBhreKbjoamlvmouC3+xGeVucLKo/pD2WiIuDlKboUoaaXQm8woAqubxyati1jsoF2Pdieagb94KIpMiSvydmjayyvPmSn4hdT3Y2L4IL7XRNmotC4Sya38BczNWNpQGA8zfjAkJPiowdp2jhgo9RueD23WKKUtXYV+AxPP2EvLJEK+uBWd8KM63yPFQCF6WYC2oqbk9eJ6L9PXEOI62qhERCzS4Cr9XT6rgrUV+512LMjswFLwgBe6MmVHehMMsrymHccMB3aJeCCUNPmq0F3GfhgpwWXVPW7EheOPPs7bjgj2exNsCddXTNazHERNPIXPCCEEaIJihti2eJnd2YjeGNwzfrU1yifDS6YdmZxFxoFj+Fi4K2tNBS3ZwiRFyQVSU0UupEAaJ6r+oWK8Po77CvLniHoMLB0bm4ROWyRMB0xOugAsKLN8s7OzubfxbjindqKvwasasEf33Bha8ehbggp0W/aovZ1M0LZ6ZV+NDIxkVhV1TdWyuuUx0McFWrG/vH0bkooDcrqBm8YVxlbnk113VrceLYokq2RPRV1GViAhcHKVwUtqjVAQ3R7Xhc4AvQdaIMuNq7iOaQirIXGYMLsO9F00zFkUe89wGDlM6OxDenJgvuelm4MEyLUgtntumFM0/G4iK9ZhdQcapkh3iSvx2Di9i+0+8pFexrl5pCsdyfholwUbyoXSyBCzQVZ5qiXrulhsY3QmyMxwU+r7FONMJw4OpseM7uRFovxBP3w8aJ7cuVmsqGVXaNFbKrItRQmzwKLrSQNNO06FdqTVlCbJwos+dZsLaVpX6a43LglHHU49VwcBOh4pQDuNT0zzLbZWk7dqId5bKTkPFa9lw0v2h5rltJuNkLXkitBln7Zi7QtGjCFLX/QBkq7Us7alVJOvZu5ROnL3wwPB44gfcslwMn6pR3N7WA8qqyHIKqaBqyXcTTDDsqptobduabYnTp8MrVC8pno0tB1kYroo250Mpc06ao+Z9KLpypftZzRC78z9pnmDItQmEPdzYrlc3Lq8SeexOsXl0uV5YzXHkTz2JgPCdw0Uzmoie8yGfKUMliA1WVtFJfvic/wzQzi1CwNJalm0PBRU97SSVtivpX95XbNWLhTEVsqBU+CVCNE7d7M8IF5FUI5XieiQtyyuFXB1Wu7ZGr9MfTGttoZiqpU/3PbcNnmGZlXEDVKaEcz8xcoGlRcj3H1w6qXCvY3xLFhh2/SZnAxdqD+RtxxnzU/xn0aXCObFyQS6y8strbpg+/U8SGeJOyYUroGowTDIsZWSwYMlxEES3iQsv/yeuk6UuswPRspys8e4rYgGVbaC7Mxgk4Hfuv/28BXlyliogSuFhVFpJQl1hp8lTWb7EpRWywNympl8RSP2A5K58/NHvuwHIILvQ8h7ZoXUtaPP6AmvpIERvhm5Q6F3u3CUMi/AzT7HzfTSvsRDjpmrkIjIpChrSeI8lFmtiw71oKF4SswzxO+hmm/xaukiqi43FB5TkOD/QlVkQUdC8Kz+XOShEbh1JMlhQ5TfCNuP8o+FIMdDp9o5vERWintJULRENeR9hVQ6y9drLYiBsmRU71mTFOO5fR07paASoMi0WlcUEuscIfbKgj1NPtKWIDzpwcObXnZsY4HTtO8frJcvjMBTnhh7kwvqKStJ7jyXyPKq3KMLPxkYxT4LDxCmOmd5liLu7M59LXc2wJsfHY7VBcpIiND2KcAANprskyvfq6Ld6qmE947zppPcft5m+644xi40NFTiEcmQrTWwKIi24rIftGrOd4x/edmx7iH3Xqk2AfyDgxSDVRXsLiHzEX853unfmE463nSImND2ScGK7+hYVwrWpZmYGXcY9fTOrNJyy1RYkNn2pon5Ve+BDboL4/bDROX2fMOAGujj9Vw+Wkq9fJM7V2B78N0+keJPCmiQ1qPcftx8CcIRVCzWx8EOMkI8NzttpAZipkI6nQIEFsMJzwzwIgFUKJjQ9hnMbAeU96gbL3mrDaVuJ6jvY5Ximq0fdhOyU2JOM0O7Juctx3ZUN1n9A1xsXjI+NkUCHEZz0/jnEaEYev8tDojSw2Tu6JzwI0DvgQI8VGbpxoPMsv3XeTKgR0sdHQ1swWFsyHgwixMbuR04RYPVAM1Z3WxBbuWBMbBjQO0MrbitiYodm66SNK9JnFxna/C0vkFKjF43U0W305CkAzG7lxSsNd1yg2ThrhPhTx6ovHK0Oise9rF9hrL9VZ5JQbpzRsq2KDaTl7f56zFEe8/r15aDQbJTpBYp/eLiwsPOSRUxYQYgOtfidHvLrYMBgnCbb/N/6OmYCtio2WuqwRini1xeNNxinHeFDEBrXA1Ctvq4mNxsHEn/7MgbFPrPCFRsqvZ+R4sdhINk45xoIiNrCB6qp1zmLx+Nw4vREUsQFDotfrE3r88KXVaLRy4/R2uFOHRmicDG23T05y5faWkMWGbpxy/E0IsdHpdSnjlOMvIhQbAczGKcdfxEa/8ap/XC/H9PE/jz/0hbk7zmkAAAAASUVORK5CYII=;" vertex="1" parent="1">
          <mxGeometry x="88.00999999999999" y="326.5" width="83.98" height="27" as="geometry" />
        </mxCell>
        <mxCell id="dHZ3otPqyAfwlpbNGFlz-21" value="Istio" style="sketch=0;html=1;verticalAlign=top;labelPosition=center;verticalLabelPosition=bottom;align=center;spacingTop=-6;fontSize=11;fontStyle=1;fontColor=#999999;shape=image;aspect=fixed;imageAspect=0;image=data:image/svg+xml,PHN2ZyB4bWxucz0iaHR0cDovL3d3dy53My5vcmcvMjAwMC9zdmciIHhtbG5zOnY9Imh0dHBzOi8vdmVjdGEuaW8vbmFubyIgd2lkdGg9IjE2MCIgaGVpZ2h0PSIyNDAiIHZpZXdCb3g9IjAgMCAxNjAgMjQwIj4mI3hhOwk8c3R5bGUgdHlwZT0idGV4dC9jc3MiPiYjeGE7CS5zdDB7ZmlsbDojNDY2YmIwO30mI3hhOwk8L3N0eWxlPiYjeGE7CTxwYXRoIGNsYXNzPSJzdDAiIGQ9Ik02MCAyNDBMMCAyMTBoMTYwem0wLTE2MEwwIDIwMGw2MC0xMHpNNzAgMHYxOTBsOTAgMTB6Ii8+JiN4YTs8L3N2Zz4=;" vertex="1" parent="1">
          <mxGeometry x="231.5" y="537" width="27" height="42" as="geometry" />
        </mxCell>
        <mxCell id="dHZ3otPqyAfwlpbNGFlz-22" value="" style="endArrow=none;dashed=1;html=1;rounded=0;" edge="1" parent="1" source="dHZ3otPqyAfwlpbNGFlz-19">
          <mxGeometry width="50" height="50" relative="1" as="geometry">
            <mxPoint x="120" y="480" as="sourcePoint" />
            <mxPoint x="130" y="440" as="targetPoint" />
          </mxGeometry>
        </mxCell>
        <mxCell id="dHZ3otPqyAfwlpbNGFlz-23" value="" style="endArrow=none;dashed=1;html=1;rounded=0;" edge="1" parent="1">
          <mxGeometry width="50" height="50" relative="1" as="geometry">
            <mxPoint x="130" y="440" as="sourcePoint" />
            <mxPoint x="700" y="440" as="targetPoint" />
          </mxGeometry>
        </mxCell>
        <mxCell id="dHZ3otPqyAfwlpbNGFlz-24" value="" style="endArrow=none;dashed=1;html=1;rounded=0;entryX=0.5;entryY=1;entryDx=0;entryDy=0;" edge="1" parent="1" target="dHZ3otPqyAfwlpbNGFlz-11">
          <mxGeometry width="50" height="50" relative="1" as="geometry">
            <mxPoint x="310" y="440" as="sourcePoint" />
            <mxPoint x="460" y="510" as="targetPoint" />
          </mxGeometry>
        </mxCell>
        <mxCell id="dHZ3otPqyAfwlpbNGFlz-25" value="" style="endArrow=none;dashed=1;html=1;rounded=0;entryX=0.5;entryY=1;entryDx=0;entryDy=0;" edge="1" parent="1" target="dHZ3otPqyAfwlpbNGFlz-12">
          <mxGeometry width="50" height="50" relative="1" as="geometry">
            <mxPoint x="520" y="440" as="sourcePoint" />
            <mxPoint x="500" y="540" as="targetPoint" />
          </mxGeometry>
        </mxCell>
        <mxCell id="dHZ3otPqyAfwlpbNGFlz-26" value="" style="endArrow=none;dashed=1;html=1;rounded=0;entryX=0.5;entryY=1;entryDx=0;entryDy=0;" edge="1" parent="1" target="dHZ3otPqyAfwlpbNGFlz-13">
          <mxGeometry width="50" height="50" relative="1" as="geometry">
            <mxPoint x="700" y="440" as="sourcePoint" />
            <mxPoint x="700" y="490" as="targetPoint" />
          </mxGeometry>
        </mxCell>
        <mxCell id="dHZ3otPqyAfwlpbNGFlz-27" value="" style="endArrow=none;dashed=1;html=1;rounded=0;" edge="1" parent="1" source="dHZ3otPqyAfwlpbNGFlz-2">
          <mxGeometry width="50" height="50" relative="1" as="geometry">
            <mxPoint x="440" y="530" as="sourcePoint" />
            <mxPoint x="245" y="440" as="targetPoint" />
          </mxGeometry>
        </mxCell>
        <mxCell id="dHZ3otPqyAfwlpbNGFlz-28" style="rounded=0;orthogonalLoop=1;jettySize=auto;html=1;startArrow=none;startFill=0;entryX=-0.017;entryY=0.437;entryDx=0;entryDy=0;entryPerimeter=0;strokeWidth=3;fillColor=#d5e8d4;strokeColor=#82b366;" edge="1" parent="1" target="dHZ3otPqyAfwlpbNGFlz-6">
          <mxGeometry relative="1" as="geometry">
            <mxPoint x="580" y="321" as="sourcePoint" />
            <mxPoint x="630" y="310" as="targetPoint" />
          </mxGeometry>
        </mxCell>
        <mxCell id="dHZ3otPqyAfwlpbNGFlz-29" value="Bumping Certificate Provider" style="rounded=1;whiteSpace=wrap;html=1;fillColor=#dae8fc;strokeColor=#6c8ebf;" vertex="1" parent="1">
          <mxGeometry x="360" y="517" width="130" height="90" as="geometry" />
        </mxCell>
        <mxCell id="dHZ3otPqyAfwlpbNGFlz-30" value="" style="endArrow=none;dashed=1;html=1;dashPattern=1 3;strokeWidth=3;rounded=0;entryX=0.75;entryY=1;entryDx=0;entryDy=0;jumpSize=6;shadow=0;" edge="1" parent="1" target="dHZ3otPqyAfwlpbNGFlz-11">
          <mxGeometry width="50" height="50" relative="1" as="geometry">
            <mxPoint x="335" y="460" as="sourcePoint" />
            <mxPoint x="410" y="430" as="targetPoint" />
          </mxGeometry>
        </mxCell>
        <mxCell id="dHZ3otPqyAfwlpbNGFlz-31" value="" style="endArrow=none;dashed=1;html=1;dashPattern=1 3;strokeWidth=3;rounded=0;entryX=0.75;entryY=1;entryDx=0;entryDy=0;jumpSize=6;shadow=0;" edge="1" parent="1">
          <mxGeometry x="0.8" y="-225" width="50" height="50" relative="1" as="geometry">
            <mxPoint x="550" y="460" as="sourcePoint" />
            <mxPoint x="550" y="360" as="targetPoint" />
            <mxPoint as="offset" />
          </mxGeometry>
        </mxCell>
        <mxCell id="dHZ3otPqyAfwlpbNGFlz-32" value="" style="endArrow=none;dashed=1;html=1;dashPattern=1 3;strokeWidth=3;rounded=0;entryX=0.75;entryY=1;entryDx=0;entryDy=0;jumpSize=6;shadow=0;" edge="1" parent="1">
          <mxGeometry x="0.6" y="-405" width="50" height="50" relative="1" as="geometry">
            <mxPoint x="720" y="460" as="sourcePoint" />
            <mxPoint x="720" y="360" as="targetPoint" />
            <mxPoint as="offset" />
          </mxGeometry>
        </mxCell>
        <mxCell id="dHZ3otPqyAfwlpbNGFlz-33" value="" style="endArrow=none;dashed=1;html=1;dashPattern=1 3;strokeWidth=3;rounded=0;jumpSize=6;shadow=0;" edge="1" parent="1">
          <mxGeometry x="0.8" y="-225" width="50" height="50" relative="1" as="geometry">
            <mxPoint x="720" y="460" as="sourcePoint" />
            <mxPoint x="330" y="460" as="targetPoint" />
            <mxPoint as="offset" />
          </mxGeometry>
        </mxCell>
        <mxCell id="dHZ3otPqyAfwlpbNGFlz-34" value="" style="endArrow=none;dashed=1;html=1;dashPattern=1 3;strokeWidth=3;rounded=0;jumpSize=6;shadow=0;exitX=0.25;exitY=0;exitDx=0;exitDy=0;" edge="1" parent="1" source="dHZ3otPqyAfwlpbNGFlz-29">
          <mxGeometry x="0.8" y="-225" width="50" height="50" relative="1" as="geometry">
            <mxPoint x="560" y="470" as="sourcePoint" />
            <mxPoint x="393" y="460" as="targetPoint" />
            <mxPoint as="offset" />
          </mxGeometry>
        </mxCell>
        <mxCell id="dHZ3otPqyAfwlpbNGFlz-35" value="Custom CA Issuer" style="rounded=1;whiteSpace=wrap;html=1;fillColor=#ffe6cc;strokeColor=#d79b00;" vertex="1" parent="1">
          <mxGeometry x="700" y="525.5" width="140" height="73" as="geometry" />
        </mxCell>
        <mxCell id="dHZ3otPqyAfwlpbNGFlz-36" style="rounded=0;orthogonalLoop=1;jettySize=auto;html=1;startArrow=none;startFill=0;entryX=0;entryY=0.611;entryDx=0;entryDy=0;entryPerimeter=0;strokeWidth=3;fillColor=#d5e8d4;strokeColor=#82b366;" edge="1" parent="1">
          <mxGeometry relative="1" as="geometry">
            <mxPoint x="10" y="326.51" as="sourcePoint" />
            <mxPoint x="70" y="326.5" as="targetPoint" />
          </mxGeometry>
        </mxCell>
        <mxCell id="dHZ3otPqyAfwlpbNGFlz-37" style="rounded=0;orthogonalLoop=1;jettySize=auto;html=1;startArrow=none;startFill=0;entryX=0;entryY=0.611;entryDx=0;entryDy=0;entryPerimeter=0;strokeWidth=3;fillColor=#d5e8d4;strokeColor=#82b366;" edge="1" parent="1">
          <mxGeometry relative="1" as="geometry">
            <mxPoint x="758.01" y="319.01" as="sourcePoint" />
            <mxPoint x="818.01" y="319" as="targetPoint" />
          </mxGeometry>
        </mxCell>
        <mxCell id="dHZ3otPqyAfwlpbNGFlz-38" value="" style="sketch=0;aspect=fixed;html=1;points=[];align=center;image;fontSize=12;image=img/lib/mscae/Kubernetes.svg;" vertex="1" parent="1">
          <mxGeometry x="570" y="550" width="50" height="48" as="geometry" />
        </mxCell>
        <mxCell id="dHZ3otPqyAfwlpbNGFlz-39" value="" style="endArrow=classic;startArrow=classic;html=1;rounded=0;shadow=0;sketch=0;strokeWidth=1;jumpSize=6;entryX=0;entryY=0.5;entryDx=0;entryDy=0;exitX=1;exitY=0.5;exitDx=0;exitDy=0;" edge="1" parent="1" source="dHZ3otPqyAfwlpbNGFlz-29" target="dHZ3otPqyAfwlpbNGFlz-1">
          <mxGeometry width="50" height="50" relative="1" as="geometry">
            <mxPoint x="380" y="760" as="sourcePoint" />
            <mxPoint x="550" y="680" as="targetPoint" />
          </mxGeometry>
        </mxCell>
        <mxCell id="dHZ3otPqyAfwlpbNGFlz-40" value="" style="endArrow=classic;startArrow=classic;html=1;rounded=0;shadow=0;sketch=0;strokeWidth=1;jumpSize=6;entryX=1;entryY=0.5;entryDx=0;entryDy=0;exitX=0;exitY=0.5;exitDx=0;exitDy=0;" edge="1" parent="1" source="dHZ3otPqyAfwlpbNGFlz-35" target="dHZ3otPqyAfwlpbNGFlz-1">
          <mxGeometry width="50" height="50" relative="1" as="geometry">
            <mxPoint x="690" y="560" as="sourcePoint" />
            <mxPoint x="550" y="572" as="targetPoint" />
          </mxGeometry>
        </mxCell>
        <mxCell id="dHZ3otPqyAfwlpbNGFlz-41" value="" style="rounded=0;whiteSpace=wrap;html=1;fillColor=#dae8fc;strokeColor=#6c8ebf;strokeWidth=1;" vertex="1" parent="1">
          <mxGeometry x="11.990000000000009" y="527" width="60" height="20" as="geometry" />
        </mxCell>
        <mxCell id="dHZ3otPqyAfwlpbNGFlz-42" value="in scope" style="text;html=1;strokeColor=none;fillColor=none;align=center;verticalAlign=middle;whiteSpace=wrap;rounded=0;" vertex="1" parent="1">
          <mxGeometry x="51.99000000000001" y="522" width="100" height="30" as="geometry" />
        </mxCell>
        <mxCell id="dHZ3otPqyAfwlpbNGFlz-43" value="" style="rounded=0;whiteSpace=wrap;html=1;strokeColor=#d79b00;fillColor=#ffe6cc;" vertex="1" parent="1">
          <mxGeometry x="11.990000000000009" y="572" width="60" height="20" as="geometry" />
        </mxCell>
        <mxCell id="dHZ3otPqyAfwlpbNGFlz-44" value="out of scope" style="text;html=1;strokeColor=none;fillColor=none;align=center;verticalAlign=middle;whiteSpace=wrap;rounded=0;" vertex="1" parent="1">
          <mxGeometry x="51.99000000000001" y="567" width="120" height="30" as="geometry" />
        </mxCell>
      </root>
    </mxGraphModel>
  </diagram>
</mxfile>
